HIERARCHY
ROOT Hips
{
 OFFSET 0.000000 0.000000 0.000000
 CHANNELS 6 Xposition Yposition Zposition Yrotation Xrotation Zrotation
 JOINT Chest
 {
  OFFSET 0.000000 10.265206 0.006595
  CHANNELS 3 Yrotation Xrotation Zrotation
  JOINT Chest2
  {
   OFFSET 0.000000 11.389044 -0.011980
   CHANNELS 3 Yrotation Xrotation Zrotation
   JOINT Chest3
   {
    OFFSET 0.000000 10.290982 0.000000
    CHANNELS 3 Yrotation Xrotation Zrotation
    JOINT Chest4
    {
     OFFSET 0.000000 10.290982 0.000000
     CHANNELS 3 Yrotation Xrotation Zrotation
     JOINT Neck
     {
      OFFSET 0.000000 14.367993 0.000000
      CHANNELS 3 Yrotation Xrotation Zrotation
      JOINT Head
      {
       OFFSET 0.000000 9.574020 -0.028490
       CHANNELS 3 Yrotation Xrotation Zrotation
       End Site
       {
        OFFSET 0.000000 18.400023 -0.014881
       }
      }
     }
     JOINT RightCollar
     {
      OFFSET -3.015571 8.009391 0.000000
      CHANNELS 3 Yrotation Xrotation Zrotation
      JOINT RightShoulder
      {
       OFFSET -13.867120 0.000000 0.000000
       CHANNELS 3 Yrotation Xrotation Zrotation
       JOINT RightElbow
       {
        OFFSET -29.171974 0.000000 0.000000
        CHANNELS 3 Yrotation Xrotation Zrotation
        JOINT RightWrist
        {
         OFFSET -24.013854 0.000000 0.006497
         CHANNELS 3 Yrotation Xrotation Zrotation
         End Site
         {
          OFFSET -18.051397 0.000000 0.000000
         }
        }
       }
      }
     }
     JOINT LeftCollar
     {
      OFFSET 3.015571 8.009391 0.000000
      CHANNELS 3 Yrotation Xrotation Zrotation
      JOINT LeftShoulder
      {
       OFFSET 13.867120 0.000000 0.000000
       CHANNELS 3 Yrotation Xrotation Zrotation
       JOINT LeftElbow
       {
        OFFSET 29.171974 0.000000 0.000000
        CHANNELS 3 Yrotation Xrotation Zrotation
        JOINT LeftWrist
        {
         OFFSET 24.013854 0.000000 0.006497
         CHANNELS 3 Yrotation Xrotation Zrotation
         End Site
         {
          OFFSET 18.051397 0.000000 0.000000
         }
        }
       }
      }
     }
    }
   }
  }
 }
 JOINT RightHip
 {
  OFFSET -8.283980 -0.032318 -0.003298
  CHANNELS 3 Yrotation Xrotation Zrotation
  JOINT RightKnee
  {
   OFFSET 0.000000 -43.567000 0.003120
   CHANNELS 3 Yrotation Xrotation Zrotation
   JOINT RightAnkle
   {
    OFFSET 0.000000 -42.556413 0.005276
    CHANNELS 3 Yrotation Xrotation Zrotation
    JOINT RightToe
    {
     OFFSET 0.000000 -7.926623 17.954935
     CHANNELS 3 Yrotation Xrotation Zrotation
     End Site
     {
      OFFSET 0.000000 -1.555762 6.841994
     }
    }
   }
  }
 }
 JOINT LeftHip
 {
  OFFSET 8.283980 -0.032318 -0.003298
  CHANNELS 3 Yrotation Xrotation Zrotation
  JOINT LeftKnee
  {
   OFFSET 0.000000 -43.567000 0.003120
   CHANNELS 3 Yrotation Xrotation Zrotation
   JOINT LeftAnkle
   {
    OFFSET 0.000000 -42.556413 0.005276
    CHANNELS 3 Yrotation Xrotation Zrotation
    JOINT LeftToe
    {
     OFFSET 0.000000 -7.926623 17.954935
     CHANNELS 3 Yrotation Xrotation Zrotation
     End Site
     {
      OFFSET 0.000000 -1.555762 6.841994
     }
    }
   }
  }
 }
}
MOTION
Frames: 11
Frame Time: 0.033333
0.000000 93.892266 0.000000 0.000000 -5.826342 0.000000 0.000000 11.116423 0.000000 0.000000 -5.290081 0.000000 0.000000 0.000000 0.000000 0.000000 0.000000 0.000000 0.000000 12.665069 0.000000 0.000000 0.575450 0.000000 0.000000 0.000000 0.000000 0.000000 0.000000 0.000000 2.337306 0.000000 0.000000 -2.337306 0.000000 0.000000 0.000000 0.000000 0.000000 0.000000 0.000000 0.000000 -2.337306 0.000000 0.000000 2.337306 0.000000 0.000000 0.000000 8.578828 0.000000 0.000000 1.905768 0.000000 0.000000 -4.658254 0.000000 0.000000 0.000000 0.000000 0.000000 8.578828 0.000000 0.000000 1.905768 0.000000 0.000000 -4.658254 0.000000 0.000000 0.000000 0.000000
6.242371 96.328169 -3.997624 -87.913842 -5.367075 1.048874 -0.048490 4.413396 0.301871 -0.045992 2.739865 0.329987 -0.038051 2.191871 0.264123 -0.029483 1.643887 0.198205 16.563606 24.204419 -7.655202 21.511595 2.734460 -12.971921 -0.708481 3.231403 10.411769 2.720302 -11.062246 71.793761 0.128438 26.121648 -9.263171 1.360131 11.915060 -3.445003 -0.100032 1.916875 -11.523800 -9.248325 -6.459062 -73.118514 -7.346362 23.017822 2.534951 1.496686 9.172708 7.357975 -10.615141 6.188469 -4.776295 -5.889994 -0.881287 0.563559 -7.341295 -0.330508 1.925978 0.044274 -0.329136 0.243207 12.212434 -1.275235 9.451010 4.251306 8.020699 2.812406 -2.474681 -0.716893 -7.340869 0.030127 0.750417 2.354936
6.116381 96.019019 -2.780711 -87.633702 -5.323906 1.072395 0.011994 4.427925 0.327987 0.001257 2.755527 0.202092 0.000227 2.204423 0.161642 -0.000413 1.653317 0.121216 16.489142 24.137466 -7.602302 21.396607 2.621513 -12.887239 -0.616603 3.203931 10.391768 1.758060 -11.469231 72.044047 -0.666739 25.647978 -9.801180 1.091707 11.866407 -3.985848 -0.041265 1.781071 -11.359338 -9.586093 -6.339234 -73.119537 -7.349866 23.581798 2.596053 1.542676 9.542262 6.288403 -11.389565 5.915040 -5.475001 -5.815323 -0.564233 0.132766 -6.957603 -0.659505 2.785343 0.014870 -0.006728 0.248264 12.412083 -0.407470 8.479300 3.491728 6.557180 2.816033 -1.863668 -0.236174 -7.325132 0.026179 0.451303 1.858322
6.182844 95.841931 -1.364507 -87.175462 -5.123987 1.290294 0.043816 4.335205 0.044788 0.089800 2.755119 0.080785 0.071518 2.204105 0.064272 0.053400 1.653087 0.047940 16.187640 24.023642 -7.503150 20.968579 2.389135 -12.681709 -0.726677 3.001685 10.447388 1.028499 -11.039960 72.458597 -0.539602 25.308839 -9.838414 0.963309 11.709438 -4.419037 -0.180663 1.688790 -11.061217 -9.728377 -6.282837 -73.030227 -7.606574 23.086368 2.580701 1.494905 9.637133 5.397878 -12.660649 5.160304 -6.549289 -5.822444 -0.007029 -0.215573 -6.186221 -0.769498 3.712539 -0.005492 0.108658 0.248270 11.598872 -0.096101 7.209961 3.590940 5.951815 2.675706 -1.270350 -0.355925 -6.710484 -0.060994 0.510349 1.358808
6.285716 95.749734 0.136748 -86.722917 -4.999175 1.397752 0.048500 4.230546 -0.249823 0.179871 2.770267 -0.016134 0.143936 2.216209 -0.013601 0.107988 1.662154 -0.010722 15.624304 23.853161 -7.398435 20.199171 2.028402 -12.395472 -0.757654 2.950571 10.526475 0.181693 -10.395057 72.738255 0.273398 25.617409 -9.238741 1.050535 11.447274 -4.295078 -0.299012 1.659296 -10.919829 -9.946842 -6.284478 -72.611909 -7.979448 22.331183 2.404059 1.230524 9.726140 4.834355 -14.143570 4.191880 -7.557070 -5.647155 0.949495 -0.677229 -5.317120 -0.821937 4.768312 -0.030311 0.021149 0.236489 11.141067 0.173325 6.089509 3.583381 5.355881 2.550479 -1.111716 -0.571278 -6.024453 0.038989 0.703091 1.031954
6.474920 95.717664 1.602205 -86.452261 -5.052651 1.558023 0.246915 4.258439 -0.524622 0.301115 2.788310 -0.091415 0.241208 2.230610 -0.074293 0.181155 1.672928 -0.056593 14.511615 23.569189 -7.138389 18.680267 1.393240 -11.765167 -0.767784 2.951900 10.501194 -0.305855 -9.568613 72.840107 1.467989 26.232967 -8.170507 1.106623 10.996434 -3.651373 -0.383267 1.779657 -10.986260 -10.410575 -6.315537 -71.990390 -8.347214 21.935125 2.318304 0.687041 10.121690 4.300826 -15.467514 2.961222 -8.274973 -5.548573 2.457671 -1.783565 -4.394607 -0.901923 6.061075 0.022661 -0.225156 0.247108 10.993850 0.574007 4.941523 2.646846 4.838522 2.330856 -0.121484 -0.648641 -5.116205 0.001063 0.786562 0.732536
6.753865 95.664133 2.952011 -86.132382 -5.394148 1.571301 0.283106 4.590525 -0.636447 0.445571 2.805980 -0.160885 0.357028 2.244685 -0.130434 0.268216 1.683438 -0.099125 13.034870 23.179565 -6.835572 16.713624 0.577181 -10.983557 -0.685373 3.036334 10.468260 -0.601075 -8.765599 72.921922 2.689487 26.736367 -7.130713 1.184838 10.681425 -2.860894 -0.445045 1.819029 -11.126220 -10.815760 -6.444537 -71.504759 -8.603954 21.772801 2.237812 0.332300 10.182265 3.979913 -16.682400 1.427904 -8.472131 -5.688495 5.003719 -3.589474 -3.579620 -1.385671 7.449567 0.285990 -0.534602 0.357844 9.991785 1.379170 4.047600 2.106280 4.080231 2.059837 1.177247 -0.584680 -4.309218 0.013511 0.897604 0.592799
7.171464 95.513053 4.483909 -86.597489 -5.421485 1.893387 0.788470 4.701291 -0.919127 0.625172 2.818747 -0.216801 0.500907 2.254812 -0.175874 0.376281 1.690966 -0.133738 11.313261 22.824237 -6.424431 14.454614 -0.209456 -10.009458 -0.548466 2.943569 10.374516 -0.342787 -7.899784 73.167696 3.634606 27.051745 -6.470462 1.355530 10.457016 -2.041461 -0.322341 1.749460 -11.144852 -10.816191 -6.524138 -71.460348 -9.053872 21.670117 2.081544 0.215318 10.173263 3.815708 -18.205034 -1.562966 -9.037486 -4.490444 8.966390 -5.146252 -2.566101 -2.516941 8.655350 0.173278 -0.754818 0.447237 8.901994 2.278600 2.854957 2.488102 2.812914 1.669833 2.417962 -0.437409 -3.487861 0.015614 1.092982 0.573411
7.869961 95.355855 6.083969 -87.334403 -5.003424 2.266141 1.431948 4.271264 -1.206858 0.812737 2.793578 -0.301809 0.651259 2.234525 -0.244580 0.489277 1.675636 -0.185794 9.619204 22.534268 -5.862209 12.240543 -0.879653 -8.879238 -0.586343 2.931497 10.417989 0.186360 -7.282135 73.519111 4.132202 26.994508 -6.062436 1.435185 10.183389 -1.515344 -0.340741 1.699440 -11.049440 -9.923753 -6.520548 -71.785099 -9.831272 22.082989 1.646784 0.275968 10.168621 3.828875 -18.649538 -4.760278 -9.640570 -2.888952 12.154381 -5.920539 -2.678080 -3.286589 8.980308 0.106509 -0.661820 0.776914 7.503104 2.936296 1.517621 3.766788 0.843193 1.263888 3.295028 -0.003593 -2.787117 0.055350 1.403355 0.688723
7.885362 95.534193 7.264034 -87.124164 -5.972249 1.908670 1.039884 4.997695 -0.802038 0.918296 2.780910 -0.386188 0.736017 2.224240 -0.312469 0.553081 1.667807 -0.237002 8.202460 22.349995 -5.306234 10.408061 -1.340908 -7.850632 -0.592572 3.033999 10.699068 0.347059 -7.187422 73.825906 4.380828 27.296915 -5.558904 1.412537 9.692446 -1.288103 -0.350287 1.915144 -11.059158 -8.532281 -6.556149 -71.992118 -10.672403 23.175952 1.088129 0.020156 10.147621 3.573874 -21.437378 -4.605920 -9.772565 -2.084375 12.767747 -6.976479 -1.411582 -4.184927 9.064287 0.341786 -0.150425 1.082174 5.465211 5.121127 1.381830 4.453235 -1.263538 0.635706 4.522195 0.669320 -2.526522 0.024335 1.229893 0.895342
7.954829 95.823341 8.218384 -87.369473 -6.293728 1.641146 1.120232 4.980594 -0.559639 0.983036 2.751826 -0.407903 0.787871 2.200909 -0.330050 0.592020 1.650260 -0.250346 6.899187 22.275305 -4.821021 8.765106 -1.619796 -6.949982 -0.684146 3.519904 10.991826 0.298575 -7.687568 74.191143 4.467946 27.861963 -5.036602 1.443024 9.342268 -1.298322 -0.422186 2.354181 -11.284026 -7.761139 -6.566952 -71.781589 -11.059465 24.010686 0.603349 -0.310644 10.214119 3.201928 -23.164363 -4.178024 -9.647554 -1.091969 12.444025 -7.985796 -0.526903 -4.809689 9.616702 0.068787 0.234437 0.922537 4.618958 6.040708 1.226310 3.982973 -2.306506 0.254824 6.122047 1.254900 -2.480630 0.004129 0.664474 0.988006
